<svg xmlns="http://www.w3.org/2000/svg" version="1.1" viewBox="512 198 895 519"><path d="M0 0 C0.33 0 0.66 0 1 0 C1.13462646 1.39847168 1.13462646 1.39847168 1.27197266 2.82519531 C9.11243043 83.30981526 27.33250649 167.59039224 85 228 C85.81210938 228.86496094 86.62421875 229.72992188 87.4609375 230.62109375 C120.56396427 264.95611019 164.20924215 275.8614767 210 280 C210 280.33 210 280.66 210 281 C208.69289063 281.03738281 207.38578125 281.07476562 206.0390625 281.11328125 C155.71488704 282.83534721 111.27763816 303.56087605 76.24609375 339.5703125 C65.64727655 351.03546781 55.90436987 364.04881399 48.06933594 377.55981445 C47.71645508 378.03507568 47.36357422 378.51033691 47 379 C46.34 379 45.68 379 45 379 C43.56273952 370.96855611 42.12825876 362.93662288 40.69733429 354.90404797 C40.03282793 351.17431112 39.36736161 347.44475086 38.69970703 343.71557617 C38.05554629 340.11742301 37.41389991 336.51882979 36.77400208 332.91991615 C36.52929881 331.54622706 36.28368653 330.17269957 36.03715515 328.79933739 C35.69229348 326.87731454 35.35094843 324.95466172 35.00976562 323.03198242 C34.81435181 321.93722092 34.61893799 320.84245941 34.41760254 319.71452332 C34 317 34 317 34 314 C37.62085352 314.57578225 40.32863699 315.53636493 43.50390625 317.35546875 C44.32697266 317.81244141 45.15003906 318.26941406 45.99804688 318.74023438 C47.71567607 319.70958947 49.42920962 320.68623586 51.13867188 321.66992188 C51.96044922 322.12302734 52.78222656 322.57613281 53.62890625 323.04296875 C54.37213135 323.46602295 55.11535645 323.88907715 55.88110352 324.32495117 C57.99521434 325.22862373 57.99521434 325.22862373 60.06787109 324.30395508 C61.98062236 323.01307758 63.61561761 321.68545525 65.28515625 320.09375 C65.89351318 319.51898926 66.50187012 318.94422852 67.12866211 318.35205078 C67.76682861 317.74087402 68.40499512 317.12969727 69.0625 316.5 C70.39787663 315.23638618 71.73381923 313.97337021 73.0703125 312.7109375 C73.73063477 312.08541992 74.39095703 311.45990234 75.07128906 310.81542969 C77.83007987 308.21867419 80.62801099 305.66667209 83.4375 303.125 C84.32308594 302.32320313 85.20867187 301.52140625 86.12109375 300.6953125 C86.74113281 300.13585937 87.36117188 299.57640625 88 299 C87.3875012 295.76968584 86.30155659 293.73863773 84.33203125 291.12109375 C83.49768555 290.00154297 83.49768555 290.00154297 82.64648438 288.859375 C82.04126953 288.06015625 81.43605469 287.2609375 80.8125 286.4375 C79.52717755 284.71757211 78.24202597 282.99751651 76.95703125 281.27734375 C76.29783691 280.39933105 75.63864258 279.52131836 74.95947266 278.61669922 C71.94848274 274.59579343 68.97501251 270.54755283 66 266.5 C64.8335391 264.91651507 63.66687174 263.3331822 62.5 261.75 C60.16666667 258.58333333 57.83333333 255.41666667 55.5 252.25 C54.9217749 251.4652832 54.3435498 250.68056641 53.74780273 249.87207031 C52.58839358 248.29855175 51.42905046 246.72498454 50.26977539 245.15136719 C47.24262576 241.04245361 44.21412149 236.93454784 41.18359375 232.828125 C40.55646484 231.97798828 39.92933594 231.12785156 39.28320312 230.25195312 C38.09092326 228.63575153 36.89824319 227.01984507 35.70507812 225.40429688 C35.16173828 224.66759766 34.61839844 223.93089844 34.05859375 223.171875 C33.58736084 222.5334668 33.11612793 221.89505859 32.63061523 221.23730469 C32.09251221 220.49899414 31.55440918 219.76068359 31 219 C30.57561142 218.49943588 30.15122284 217.99887177 29.713974 217.48313904 C25.94530629 212.79781247 25.3081968 209.36673427 25.51171875 203.44140625 C25.52233086 202.25767677 25.52233086 202.25767677 25.53315735 201.05003357 C25.56093295 198.55318503 25.62363187 196.05865944 25.6875 193.5625 C25.71260498 191.86005865 25.73541428 190.15758181 25.75585938 188.45507812 C25.81070329 184.30250347 25.89685159 180.15164422 26 176 C1.21086944 185.6072707 -20.71520309 195.55703454 -41 213 C-41.72832031 213.60585938 -42.45664062 214.21171875 -43.20703125 214.8359375 C-75.55747142 242.17608005 -87.70581861 283.66722878 -93 324 C-96.04647138 322.53210643 -98.74625255 320.82431848 -101.51464844 318.87817383 C-117.66311424 307.62205284 -135.31188353 299.08401548 -154 293 C-154.99797607 292.6589624 -154.99797607 292.6589624 -156.01611328 292.31103516 C-177.84998071 284.87324403 -201.08231879 282.29100922 -224 281 C-224 280.67 -224 280.34 -224 280 C-222.55270508 279.90295776 -222.55270508 279.90295776 -221.07617188 279.80395508 C-201.72766429 278.47825901 -182.84595599 276.84462369 -164 272 C-162.85724609 271.71817871 -162.85724609 271.71817871 -161.69140625 271.43066406 C-113.33684693 259.34202423 -70.67799529 226.67327675 -44.73706055 184.41967773 C-10.91991793 127.69833116 -2.57133986 64.74863714 0 0 Z " fill="#F68E63" transform="translate(965,198)"></path><path d="M0 0 C54.69640663 0 54.69640663 0 64.0546875 7.02734375 C69.94970973 13.00522774 72.34936305 19.96310837 72.625 28.25 C72.2736035 35.66201453 70.48513043 40.18787872 65.625 45.6875 C61.18893852 49.59545892 56.61774995 53.31048019 52 57 C52.57105469 57.85078125 53.14210938 58.7015625 53.73046875 59.578125 C55.9632475 62.91093748 58.18513674 66.25088447 60.40283203 69.59375 C61.51673881 71.27193178 62.63243931 72.94892374 63.74951172 74.625 C65.54854053 77.32864168 67.33767791 80.03860851 69.125 82.75 C69.70531982 83.61915039 70.28563965 84.48830078 70.88354492 85.38378906 C71.68755737 86.6092041 71.68755737 86.6092041 72.5078125 87.859375 C72.98879395 88.58608398 73.46977539 89.31279297 73.96533203 90.06152344 C75 92 75 92 75 95 C70.32532268 96.13708367 66.64363174 96.37739131 62 95 C57.71800141 91.06645611 55.13907432 85.50948372 52.38671875 80.46484375 C50.08214886 76.36855192 47.46684048 72.480743 44.875 68.5625 C40.18077344 61.36154688 40.18077344 61.36154688 39 59 C25.14 58.505 25.14 58.505 11 58 C11 70.21 11 82.42 11 95 C7.37 95 3.74 95 0 95 C0 63.65 0 32.3 0 0 Z M11 12 C11 23.22 11 34.44 11 46 C15.98099986 46.06918055 20.9603073 46.12881819 25.94140625 46.16479492 C27.63287022 46.17980505 29.32429578 46.20021963 31.015625 46.22631836 C33.45843024 46.26304686 35.9007173 46.27980411 38.34375 46.29296875 C39.08991577 46.30845261 39.83608154 46.32393646 40.6048584 46.33988953 C47.29611645 46.34199493 52.79966683 45.00899986 57.875 40.375 C60.89970722 35.57105324 62.50974018 31.2791533 61.62109375 25.5625 C60.19881743 20.6211057 58.54538821 17.68591121 54 15 C48.57555381 12.2622357 44.47383053 11.58271097 38.44140625 11.70703125 C37.25767677 11.71339851 37.25767677 11.71339851 36.05003357 11.71989441 C33.55382739 11.73655548 31.05845808 11.77418221 28.5625 11.8125 C26.86003778 11.82756317 25.15756279 11.84124871 23.45507812 11.85351562 C19.30281134 11.88385367 15.15233144 11.9425945 11 12 Z " fill="#F68E63" transform="translate(1111,621)"></path><path d="M0 0 C1.58649888 1.21939639 3.15030741 2.46900617 4.6875 3.75 C5.39648438 4.32363281 6.10546875 4.89726563 6.8359375 5.48828125 C16.05441064 13.73545932 21.15616525 26.03217425 21.8984375 38.2109375 C22.26679523 52.18019586 19.59852588 64.64661957 10.35546875 75.484375 C0.12356579 86.10920819 -10.79154809 91.80045655 -25.8125 92.25 C-37.71847214 91.86989172 -47.1842383 88.35688475 -56.3125 80.75 C-57.02148438 80.17636719 -57.73046875 79.60273437 -58.4609375 79.01171875 C-67.67941064 70.76454068 -72.78116525 58.46782575 -73.5234375 46.2890625 C-73.89220019 32.30444672 -71.19346659 19.96199985 -62.05078125 9.05078125 C-45.64845008 -8.17552888 -20.74681024 -13.82066475 0 0 Z M-54.55078125 19.30859375 C-60.89490935 28.10034554 -62.14411316 38.19671181 -61.3125 48.75 C-58.72903024 60.98826533 -52.15946439 69.29174076 -42.3125 76.75 C-34.06966517 81.5213016 -24.27780248 82.006127 -15.1875 79.625 C-5.82863114 76.46638176 2.51878534 68.88653098 7.04296875 60.125 C11.71780992 48.78386907 11.89062773 38.39907164 7.94140625 26.7578125 C4.3147695 18.05840348 -3.39284747 9.70345517 -12.0625 5.8125 C-29.34476394 0.1625291 -43.05785637 5.96415642 -54.55078125 19.30859375 Z " fill="#F68E63" transform="translate(1299.3125,624.25)"></path><path d="M0 0 C23.43 0 46.86 0 71 0 C71 3.63 71 7.26 71 11 C51.2 11 31.4 11 11 11 C11 21.23 11 31.46 11 42 C27.83 42 44.66 42 62 42 C62 45.63 62 49.26 62 53 C45.17 53 28.34 53 11 53 C11 63.56 11 74.12 11 85 C15.66125 84.835 20.3225 84.67 25.125 84.5 C41.08917062 83.96919008 57.02787034 83.89673192 73 84 C73 87.96 73 91.92 73 96 C48.91 96 24.82 96 0 96 C0 64.32 0 32.64 0 0 Z " fill="#F68E63" transform="translate(700,620)"></path><path d="M0 0 C3.63 0 7.26 0 11 0 C11 14.52 11 29.04 11 44 C30.47 44 49.94 44 70 44 C69.505 35.09 69.505 35.09 69 26 C68.93815231 21.28473191 68.9012448 16.58817625 68.9375 11.875 C68.94201172 10.71613281 68.94652344 9.55726563 68.95117188 8.36328125 C68.96269164 5.57549712 68.98061077 2.7877405 69 0 C72.96 0 76.92 0 81 0 C81 32.01 81 64.02 81 97 C77.37 97 73.74 97 70 97 C70 83.47 70 69.94 70 56 C50.86 56 31.72 56 12 56 C12 69.53 12 83.06 12 97 C8.04 97 4.08 97 0 97 C0 64.99 0 32.98 0 0 Z " fill="#F68E63" transform="translate(919,620)"></path><path d="M0 0 C3.63 0 7.26 0 11 0 C11 14.19 11 28.38 11 43 C30.47 43 49.94 43 70 43 C69.505 30.13 69.505 30.13 69 17 C68.9296875 5.609375 68.9296875 5.609375 69 0 C72.96 0 76.92 0 81 0 C81 31.68 81 63.36 81 96 C77.37 96 73.74 96 70 96 C70 82.47 70 68.94 70 55 C50.86 55 31.72 55 12 55 C12 68.53 12 82.06 12 96 C8.04 96 4.08 96 0 96 C0 64.32 0 32.64 0 0 Z " fill="#F68E63" transform="translate(601,620)"></path><path d="M0 0 C2.31 0 4.62 0 7 0 C15.28580454 17.56093236 23.48191203 35.15736451 31.47900391 52.85180664 C34.55518138 59.65293008 37.65859078 66.43894223 40.83203125 73.1953125 C41.138526 73.84910889 41.44502075 74.50290527 41.76080322 75.17651367 C43.21369071 78.27452674 44.67243363 81.36937739 46.14111328 84.45996094 C46.65013184 85.5430957 47.15915039 86.62623047 47.68359375 87.7421875 C48.35733032 89.16313721 48.35733032 89.16313721 49.04467773 90.61279297 C50 93 50 93 50 96 C46.04 96 42.08 96 38 96 C36.66180502 93.3773768 35.3292849 90.75213401 34 88.125 C33.6184375 87.37863281 33.236875 86.63226562 32.84375 85.86328125 C32.4828125 85.14785156 32.121875 84.43242188 31.75 83.6953125 C31.24726562 82.7055542 31.24726562 82.7055542 30.734375 81.69580078 C30 80 30 80 30 78 C12.18 78 -5.64 78 -24 78 C-24.99 80.97 -25.98 83.94 -27 87 C-28.24983582 90.04725857 -29.6221012 93.00663365 -31 96 C-35.29 96 -39.58 96 -44 96 C-43.17037538 91.85187691 -42.33509718 89.2823964 -40.515625 85.58984375 C-39.99967773 84.53289307 -39.48373047 83.47594238 -38.95214844 82.38696289 C-38.39043945 81.24864014 -37.82873047 80.11031738 -37.25 78.9375 C-36.04860076 76.47825295 -34.85218486 74.01659571 -33.65625 71.5546875 C-33.34967468 70.92460281 -33.04309937 70.29451813 -32.72723389 69.64533997 C-29.65627047 63.32067068 -26.69525082 56.94658538 -23.75 50.5625 C-18.45396306 39.09727111 -13.08533181 27.66763427 -7.6875 16.25 C-7.30275513 15.43612823 -6.91801025 14.62225647 -6.52160645 13.78372192 C-4.34898793 9.18855569 -2.17505835 4.59401184 0 0 Z M2 22 C-0.04721121 26.47882821 -2.09176143 30.95885873 -4.1340332 35.43994141 C-4.82669247 36.95881556 -5.52003221 38.47737962 -6.21411133 39.99560547 C-7.22143254 42.19934791 -8.22616066 44.40425803 -9.23046875 46.609375 C-9.53276901 47.26927429 -9.83506927 47.92917358 -10.14653015 48.60906982 C-12.91051251 54.68913498 -15.42632594 60.82318225 -18 67 C-3.81 67 10.38 67 25 67 C18.27226301 51.86259176 11.22633199 36.90534483 4 22 C3.34 22 2.68 22 2 22 Z " fill="#F68E63" transform="translate(1051,620)"></path><path d="M0 0 C-0.280828 1.98073365 -0.57496614 3.95958448 -0.875 5.9375 C-1.03742188 7.03964844 -1.19984375 8.14179687 -1.3671875 9.27734375 C-1.57601562 10.17582031 -1.78484375 11.07429687 -2 12 C-2.66 12.33 -3.32 12.66 -4 13 C-6.45502282 11.91851225 -8.75212747 10.61751974 -11.1015625 9.32421875 C-17.60993392 6.35071752 -23.81785896 5.63458089 -30.875 5.6875 C-32.06017212 5.69595947 -32.06017212 5.69595947 -33.26928711 5.70458984 C-43.19832318 5.91074313 -51.40513743 8.35085786 -59 15 C-67.13227175 24.10885461 -68.78302993 35.28421657 -68.34375 47.125 C-67.50673697 56.56041963 -64.03124851 63.66353889 -57 70 C-45.96119244 79.02802105 -33.81391308 80.33603403 -20 79 C-11.94116821 77.52185158 -4.91428881 74.81460979 1 69 C1.33 68.34 1.66 67.68 2 67 C2.66 67 3.32 67 4 67 C5.34795764 79.14826021 5.34795764 79.14826021 2.453125 83.125 C0.04506982 84.81239633 -2.26812634 85.91184836 -5 87 C-5.90878906 87.40734375 -6.81757812 87.8146875 -7.75390625 88.234375 C-22.15923 93.71853997 -40.09453584 92.59819944 -54.140625 86.67578125 C-66.83473929 80.71955275 -74.20673091 72.65059552 -79.4375 59.5 C-83.54671217 45.8204149 -81.78372393 31.04727427 -75.71484375 18.30078125 C-68.7092694 5.5580513 -58.15843074 -1.66370904 -44.55078125 -6.1328125 C-30.04703244 -9.80422896 -12.73218419 -8.48812279 0 0 Z " fill="#F68E63" transform="translate(903,625)"></path><path d="M0 0 C25.41 0 50.82 0 77 0 C77 3.63 77 7.26 77 11 C66.11 11 55.22 11 44 11 C44 39.05 44 67.1 44 96 C40.37 96 36.74 96 33 96 C33 67.95 33 39.9 33 11 C22.11 11 11.22 11 0 11 C0 7.37 0 3.74 0 0 Z " fill="#F68E63" transform="translate(1330,620)"></path><path d="M0 0 C25.41 0 50.82 0 77 0 C77 3.63 77 7.26 77 11 C66.11 11 55.22 11 44 11 C44 39.05 44 67.1 44 96 C40.37 96 36.74 96 33 96 C33 67.95 33 39.9 33 11 C22.11 11 11.22 11 0 11 C0 7.37 0 3.74 0 0 Z " fill="#F68E63" transform="translate(512,620)"></path><path d="M0 0 C3.96 0 7.92 0 12 0 C12.02318207 11.37014649 12.04094502 22.74028734 12.05181217 34.11045265 C12.05702815 39.39021261 12.0641025 44.66995639 12.07543945 49.94970703 C12.08631395 55.04604628 12.09228653 60.14236998 12.09487724 65.23871994 C12.09672326 67.18194193 12.10032805 69.12516309 12.10573006 71.06837845 C12.113001 73.79251183 12.11398838 76.51658112 12.11352539 79.24072266 C12.11712067 80.04201599 12.12071594 80.84330933 12.12442017 81.66888428 C12.1166658 85.8922003 11.8362168 89.83923704 11 94 C7.37 94 3.74 94 0 94 C0 62.98 0 31.96 0 0 Z " fill="#F68E63" transform="translate(1199,622)"></path></svg>