<?xml version="1.0" encoding="UTF-8"?>
<svg version="1.1" xmlns="http://www.w3.org/2000/svg" width="1920" height="1080">
<path d="M0 0 C0.33 0 0.66 0 1 0 C1.13462646 1.39847168 1.13462646 1.39847168 1.27197266 2.82519531 C9.11243043 83.30981526 27.33250649 167.59039224 85 228 C85.81210938 228.86496094 86.62421875 229.72992188 87.4609375 230.62109375 C120.56396427 264.95611019 164.20924215 275.8614767 210 280 C210 280.33 210 280.66 210 281 C208.69289063 281.03738281 207.38578125 281.07476562 206.0390625 281.11328125 C155.71488704 282.83534721 111.27763816 303.56087605 76.24609375 339.5703125 C65.64727655 351.03546781 55.90436987 364.04881399 48.06933594 377.55981445 C47.71645508 378.03507568 47.36357422 378.51033691 47 379 C46.34 379 45.68 379 45 379 C43.56273952 370.96855611 42.12825876 362.93662288 40.69733429 354.90404797 C40.03282793 351.17431112 39.36736161 347.44475086 38.69970703 343.71557617 C38.05554629 340.11742301 37.41389991 336.51882979 36.77400208 332.91991615 C36.52929881 331.54622706 36.28368653 330.17269957 36.03715515 328.79933739 C35.69229348 326.87731454 35.35094843 324.95466172 35.00976562 323.03198242 C34.81435181 321.93722092 34.61893799 320.84245941 34.41760254 319.71452332 C34 317 34 317 34 314 C37.62085352 314.57578225 40.32863699 315.53636493 43.50390625 317.35546875 C44.32697266 317.81244141 45.15003906 318.26941406 45.99804688 318.74023438 C47.71567607 319.70958947 49.42920962 320.68623586 51.13867188 321.66992188 C51.96044922 322.12302734 52.78222656 322.57613281 53.62890625 323.04296875 C54.37213135 323.46602295 55.11535645 323.88907715 55.88110352 324.32495117 C57.99521434 325.22862373 57.99521434 325.22862373 60.06787109 324.30395508 C61.98062236 323.01307758 63.61561761 321.68545525 65.28515625 320.09375 C65.89351318 319.51898926 66.50187012 318.94422852 67.12866211 318.35205078 C67.76682861 317.74087402 68.40499512 317.12969727 69.0625 316.5 C70.39787663 315.23638618 71.73381923 313.97337021 73.0703125 312.7109375 C73.73063477 312.08541992 74.39095703 311.45990234 75.07128906 310.81542969 C77.83007987 308.21867419 80.62801099 305.66667209 83.4375 303.125 C84.32308594 302.32320313 85.20867187 301.52140625 86.12109375 300.6953125 C86.74113281 300.13585937 87.36117188 299.57640625 88 299 C87.3875012 295.76968584 86.30155659 293.73863773 84.33203125 291.12109375 C83.49768555 290.00154297 83.49768555 290.00154297 82.64648438 288.859375 C82.04126953 288.06015625 81.43605469 287.2609375 80.8125 286.4375 C79.52717755 284.71757211 78.24202597 282.99751651 76.95703125 281.27734375 C76.29783691 280.39933105 75.63864258 279.52131836 74.95947266 278.61669922 C71.94848274 274.59579343 68.97501251 270.54755283 66 266.5 C64.8335391 264.91651507 63.66687174 263.3331822 62.5 261.75 C60.16666667 258.58333333 57.83333333 255.41666667 55.5 252.25 C54.9217749 251.4652832 54.3435498 250.68056641 53.74780273 249.87207031 C52.58839358 248.29855175 51.42905046 246.72498454 50.26977539 245.15136719 C47.24262576 241.04245361 44.21412149 236.93454784 41.18359375 232.828125 C40.55646484 231.97798828 39.92933594 231.12785156 39.28320312 230.25195312 C38.09092326 228.63575153 36.89824319 227.01984507 35.70507812 225.40429688 C35.16173828 224.66759766 34.61839844 223.93089844 34.05859375 223.171875 C33.58736084 222.5334668 33.11612793 221.89505859 32.63061523 221.23730469 C32.09251221 220.49899414 31.55440918 219.76068359 31 219 C30.57561142 218.49943588 30.15122284 217.99887177 29.713974 217.48313904 C25.94530629 212.79781247 25.3081968 209.36673427 25.51171875 203.44140625 C25.52233086 202.25767677 25.52233086 202.25767677 25.53315735 201.05003357 C25.56093295 198.55318503 25.62363187 196.05865944 25.6875 193.5625 C25.71260498 191.86005865 25.73541428 190.15758181 25.75585938 188.45507812 C25.81070329 184.30250347 25.89685159 180.15164422 26 176 C1.21086944 185.6072707 -20.71520309 195.55703454 -41 213 C-41.72832031 213.60585938 -42.45664062 214.21171875 -43.20703125 214.8359375 C-75.55747142 242.17608005 -87.70581861 283.66722878 -93 324 C-96.04647138 322.53210643 -98.74625255 320.82431848 -101.51464844 318.87817383 C-117.66311424 307.62205284 -135.31188353 299.08401548 -154 293 C-154.99797607 292.6589624 -154.99797607 292.6589624 -156.01611328 292.31103516 C-177.84998071 284.87324403 -201.08231879 282.29100922 -224 281 C-224 280.67 -224 280.34 -224 280 C-222.55270508 279.90295776 -222.55270508 279.90295776 -221.07617188 279.80395508 C-201.72766429 278.47825901 -182.84595599 276.84462369 -164 272 C-162.85724609 271.71817871 -162.85724609 271.71817871 -161.69140625 271.43066406 C-113.33684693 259.34202423 -70.67799529 226.67327675 -44.73706055 184.41967773 C-10.91991793 127.69833116 -2.57133986 64.74863714 0 0 Z " fill="#F68E63" transform="translate(965,198)"/>
</svg>
