<?xml version="1.0" encoding="UTF-8"?>
<svg version="1.1" xmlns="http://www.w3.org/2000/svg" width="1920" height="1081">
<path d="M0 0 C0.33 0 0.66 0 1 0 C1.13462646 1.45176636 1.13462646 1.45176636 1.27197266 2.93286133 C4.28825137 35.04870642 8.55112694 66.80301002 17 98 C17.29100586 99.07620605 17.58201172 100.15241211 17.88183594 101.26123047 C32.1759873 153.3025297 56.68741699 209.46776312 101 243 C102.09425857 243.86784872 103.18798252 244.73637184 104.28125 245.60546875 C134.99725984 269.55578139 171.83177596 278.07128655 210 280 C210 280.33 210 280.66 210 281 C209.31711914 281.03963867 208.63423828 281.07927734 207.93066406 281.12011719 C171.69172489 283.3175202 138.0658343 291.79251388 108 313 C106.46666016 314.07701172 106.46666016 314.07701172 104.90234375 315.17578125 C98.02235284 320.17376174 91.67855577 325.65302006 85.54296875 331.52441406 C84.50620844 332.51589813 83.4644404 333.50216977 82.41796875 334.48339844 C69.59750733 346.53182477 59.46398567 360.3933732 49.92578125 375.12109375 C48 378 48 378 46 380 C44.62743169 376.09695767 43.58239056 372.31302183 42.85498047 368.24169922 C42.65492401 367.13390106 42.45486755 366.02610291 42.24874878 364.88473511 C42.04033356 363.7033194 41.83191833 362.52190369 41.6171875 361.3046875 C41.39805695 360.07968536 41.17892639 358.85468323 40.95315552 357.59255981 C40.37442639 354.34952204 39.79996877 351.10576244 39.22705078 347.86169434 C38.87470393 345.87332922 38.5192488 343.88554651 38.16259766 341.89794922 C37.47694832 338.07586938 36.79618875 334.25295342 36.1171875 330.4296875 C35.79849197 328.65149124 35.79849197 328.65149124 35.47335815 326.83737183 C35.27960602 325.73587799 35.08585388 324.63438416 34.88623047 323.49951172 C34.71461395 322.53165741 34.54299744 321.5638031 34.36618042 320.56661987 C34 318 34 318 34 314 C40.12018331 315.75555179 45.33335901 318.82183644 50.81054688 321.98632812 C55.00556023 324.31758059 55.00556023 324.31758059 59.6640625 325.12109375 C63.02171718 323.5096441 65.31274039 321.06201962 67.8125 318.375 C68.87172876 317.27414358 69.9329264 316.17517816 70.99609375 315.078125 C71.76542236 314.28051758 71.76542236 314.28051758 72.55029297 313.46679688 C74.98486779 311.00352211 77.60745026 308.77854131 80.2421875 306.53515625 C82.96708334 304.15541388 85.47437555 301.58876506 88 299 C86.44310884 294.23880959 83.77424476 290.78198416 80.75 286.875 C79.65934901 285.44332293 78.56953981 284.01100428 77.48046875 282.578125 C76.90989746 281.82982422 76.33932617 281.08152344 75.75146484 280.31054688 C72.81900594 276.44202289 69.93964987 272.5347466 67.0625 268.625 C66.4756543 267.82819824 65.88880859 267.03139648 65.28417969 266.21044922 C60.78858066 260.09589201 56.34079275 253.94774788 51.90795898 247.78759766 C47.3005549 241.39321959 42.62918678 235.04716281 37.93164062 228.71875 C36.83447049 227.23672233 35.7495654 225.74553746 34.67700195 224.24560547 C33.02438043 221.96069481 33.02438043 221.96069481 31.06323242 219.85205078 C24.3972439 211.92479175 24.98984558 203.72813324 25.0625 193.875 C25.04936829 192.23434682 25.03311712 190.5937155 25.01367188 188.953125 C24.97314567 184.96809111 24.97483406 180.98513831 25 177 C2.22637332 185.26440828 -19.64498448 194.84420293 -38 211 C-38.82886719 211.70769531 -39.65773438 212.41539062 -40.51171875 213.14453125 C-73.54095792 241.92196883 -88.09894549 281.43821081 -93 324 C-97.13497781 322.55615949 -100.27960674 320.50893836 -103.8125 317.9375 C-139.15437504 293.05403778 -181.54108212 284.1398979 -224 281 C-224 280.67 -224 280.34 -224 280 C-223.44465576 279.9906543 -222.88931152 279.98130859 -222.31713867 279.97167969 C-165.08761472 278.78364439 -110.36795197 259.77622768 -70.0012207 217.98217773 C-53.6839529 200.60175212 -41.09336714 180.5285004 -31 159 C-30.42894531 157.81019531 -29.85789062 156.62039063 -29.26953125 155.39453125 C-15.3092638 125.52753621 -8.1171176 92.55216344 -4 60 C-3.84023682 58.74654785 -3.84023682 58.74654785 -3.67724609 57.46777344 C-1.35496378 38.42896149 -0.89551155 19.14695843 0 0 Z " fill="#000000" transform="translate(966,198)"/>
</svg>
    